<svg xmlns="http://www.w3.org/2000/svg" viewBox="0 0 960 360"><rect width="960" height="360" rx="24" fill="#101317"/><g transform="translate(0,0)"><rect width="480" height="360" rx="24" fill="#101317"/><line x1="55" y1="310" x2="425" y2="310" stroke="#2c333a" stroke-width="3" opacity=".7"/><line x1="178" y1="218" x2="204" y2="194" stroke="#9ca7b1" stroke-width="16" stroke-linecap="round" opacity="0.45"/><line x1="204" y1="194" x2="232" y2="174" stroke="#9ca7b1" stroke-width="13" stroke-linecap="round" opacity="0.45"/><line x1="230" y1="230" x2="276" y2="264" stroke="#9ca7b1" stroke-width="21" stroke-linecap="round" opacity="0.35"/><line x1="276" y1="264" x2="322" y2="288" stroke="#9ca7b1" stroke-width="16" stroke-linecap="round" opacity="0.35"/><path d="M 154 226 Q 172 218 190 226 L 237 236 Q 224 244 211 236 Z" fill="#d6dce2" stroke="#0b0e11" stroke-width="2"/><line x1="172" y1="226" x2="148" y2="248" stroke="#d6dce2" stroke-width="20" stroke-linecap="round" opacity="1"/><line x1="148" y1="248" x2="124" y2="266" stroke="#d6dce2" stroke-width="16" stroke-linecap="round" opacity="1"/><line x1="224" y1="236" x2="288" y2="228" stroke="#d6dce2" stroke-width="24" stroke-linecap="round" opacity="1"/><line x1="288" y1="228" x2="344" y2="218" stroke="#d6dce2" stroke-width="18" stroke-linecap="round" opacity="1"/><circle cx="132" cy="234" r="22" fill="#d6dce2" stroke="#0b0e11" stroke-width="2"/><ellipse cx="129" cy="224" rx="16" ry="9" fill="#9ca7b1" opacity=".55"/><circle cx="172" cy="226" r="4" fill="#f1f4f6" stroke="#0b0e11" stroke-width="1"/><circle cx="148" cy="248" r="4" fill="#f1f4f6" stroke="#0b0e11" stroke-width="1"/><circle cx="224" cy="236" r="4" fill="#f1f4f6" stroke="#0b0e11" stroke-width="1"/><circle cx="288" cy="228" r="4" fill="#f1f4f6" stroke="#0b0e11" stroke-width="1"/><ellipse cx="224" cy="232" rx="24" ry="16" fill="#e04d49" opacity=".72"/><ellipse cx="244" cy="248" rx="18" ry="12" fill="#f1a13a" opacity=".72"/></g><g transform="translate(480,0)"><rect width="480" height="360" rx="24" fill="#101317"/><line x1="55" y1="310" x2="425" y2="310" stroke="#2c333a" stroke-width="3" opacity=".7"/><line x1="178" y1="218" x2="204" y2="194" stroke="#9ca7b1" stroke-width="16" stroke-linecap="round" opacity="0.45"/><line x1="204" y1="194" x2="232" y2="174" stroke="#9ca7b1" stroke-width="13" stroke-linecap="round" opacity="0.45"/><line x1="230" y1="230" x2="276" y2="206" stroke="#9ca7b1" stroke-width="21" stroke-linecap="round" opacity="0.35"/><line x1="276" y1="206" x2="324" y2="192" stroke="#9ca7b1" stroke-width="16" stroke-linecap="round" opacity="0.35"/><path d="M 154 226 Q 172 218 190 226 L 237 236 Q 224 244 211 236 Z" fill="#d6dce2" stroke="#0b0e11" stroke-width="2"/><line x1="172" y1="226" x2="148" y2="248" stroke="#d6dce2" stroke-width="20" stroke-linecap="round" opacity="1"/><line x1="148" y1="248" x2="124" y2="266" stroke="#d6dce2" stroke-width="16" stroke-linecap="round" opacity="1"/><line x1="224" y1="236" x2="252" y2="276" stroke="#d6dce2" stroke-width="24" stroke-linecap="round" opacity="1"/><line x1="252" y1="276" x2="302" y2="292" stroke="#d6dce2" stroke-width="18" stroke-linecap="round" opacity="1"/><circle cx="132" cy="234" r="22" fill="#d6dce2" stroke="#0b0e11" stroke-width="2"/><ellipse cx="129" cy="224" rx="16" ry="9" fill="#9ca7b1" opacity=".55"/><circle cx="172" cy="226" r="4" fill="#f1f4f6" stroke="#0b0e11" stroke-width="1"/><circle cx="148" cy="248" r="4" fill="#f1f4f6" stroke="#0b0e11" stroke-width="1"/><circle cx="224" cy="236" r="4" fill="#f1f4f6" stroke="#0b0e11" stroke-width="1"/><circle cx="252" cy="276" r="4" fill="#f1f4f6" stroke="#0b0e11" stroke-width="1"/><ellipse cx="224" cy="232" rx="24" ry="16" fill="#e04d49" opacity=".72"/><ellipse cx="244" cy="248" rx="18" ry="12" fill="#f1a13a" opacity=".72"/></g></svg>