<svg xmlns="http://www.w3.org/2000/svg" viewBox="0 0 480 360" width="480" height="360"><defs><filter id="shadow" x="-30%" y="-30%" width="160%" height="160%"><feDropShadow dx="0" dy="6" stdDeviation="8" flood-color="#000000" flood-opacity="0.22"/></filter></defs><line x1="48" y1="308" x2="432" y2="308" stroke="#2a3138" stroke-width="3" stroke-linecap="round" opacity="0.65"/><g filter="url(#shadow)"><line x1="156" y1="220" x2="140" y2="240" stroke="#9aa4ae" stroke-opacity="0.35" stroke-width="18" stroke-linecap="round"/><line x1="156" y1="220" x2="140" y2="240" stroke="#0e1216" stroke-opacity="0.35" stroke-width="2" stroke-linecap="round"/><line x1="140" y1="240" x2="126" y2="256" stroke="#9aa4ae" stroke-opacity="0.35" stroke-width="15" stroke-linecap="round"/><line x1="140" y1="240" x2="126" y2="256" stroke="#0e1216" stroke-opacity="0.35" stroke-width="2" stroke-linecap="round"/><line x1="224" y1="180" x2="296" y2="214" stroke="#9aa4ae" stroke-opacity="0.28" stroke-width="22" stroke-linecap="round"/><line x1="224" y1="180" x2="296" y2="214" stroke="#0e1216" stroke-opacity="0.28" stroke-width="2" stroke-linecap="round"/><line x1="296" y1="214" x2="352" y2="266" stroke="#9aa4ae" stroke-opacity="0.28" stroke-width="18" stroke-linecap="round"/><line x1="296" y1="214" x2="352" y2="266" stroke="#0e1216" stroke-opacity="0.28" stroke-width="2" stroke-linecap="round"/><polygon points="169.1268833672837,242.34224529144583 150.8731166327163,213.65775470855417 219.02061860148893,175.0324006594826 232.97938139851107,196.9675993405174" fill="#d5dbe1" fill-opacity="1.0" stroke="#0e1216" stroke-opacity="1.0" stroke-width="2" stroke-linejoin="round"/><polygon points="226,186 208,196 240,198" fill="#d5dbe1" fill-opacity="1.0" stroke="#0e1216" stroke-opacity="1.0" stroke-width="2" stroke-linejoin="round"/><line x1="143.8" y1="231.6" x2="160" y2="228" stroke="#d5dbe1" stroke-opacity="1.0" stroke-width="12" stroke-linecap="round"/><line x1="143.8" y1="231.6" x2="160" y2="228" stroke="#0e1216" stroke-opacity="1.0" stroke-width="2" stroke-linecap="round"/><line x1="160" y1="228" x2="144" y2="248" stroke="#d5dbe1" stroke-opacity="1.0" stroke-width="20" stroke-linecap="round"/><line x1="160" y1="228" x2="144" y2="248" stroke="#0e1216" stroke-opacity="1.0" stroke-width="2" stroke-linecap="round"/><line x1="144" y1="248" x2="128" y2="268" stroke="#d5dbe1" stroke-opacity="1.0" stroke-width="16" stroke-linecap="round"/><line x1="144" y1="248" x2="128" y2="268" stroke="#0e1216" stroke-opacity="1.0" stroke-width="2" stroke-linecap="round"/><line x1="226" y1="186" x2="300" y2="220" stroke="#d5dbe1" stroke-opacity="1.0" stroke-width="24" stroke-linecap="round"/><line x1="226" y1="186" x2="300" y2="220" stroke="#0e1216" stroke-opacity="1.0" stroke-width="2" stroke-linecap="round"/><line x1="300" y1="220" x2="356" y2="274" stroke="#d5dbe1" stroke-opacity="1.0" stroke-width="18" stroke-linecap="round"/><line x1="300" y1="220" x2="356" y2="274" stroke="#0e1216" stroke-opacity="1.0" stroke-width="2" stroke-linecap="round"/><ellipse cx="128" cy="268" rx="12" ry="6" fill="#d5dbe1" fill-opacity="1.0" stroke="#11161b" stroke-width="2" transform="rotate(-35 128 268)"/><ellipse cx="366" cy="274" rx="16" ry="7" fill="#d5dbe1" fill-opacity="1.0" stroke="#11161b" stroke-width="2" transform="rotate(0 366 274)"/><circle cx="124" cy="236" r="22" fill="#d5dbe1" fill-opacity="1.0" stroke="#0e1216" stroke-opacity="1.0" stroke-width="2"/><ellipse cx="120" cy="225" rx="17" ry="10" fill="#86919c" fill-opacity="0.55" stroke="none" stroke-width="0"/><path d="M 114 238 Q 124 244 133 238" stroke="#6f7981" stroke-width="1.5" fill="none" opacity="0.7"/><circle cx="234.88" cy="190.08" r="12" fill="#e24d48" fill-opacity="0.82" stroke="#0e1216" stroke-opacity="0.82" stroke-width="2"/><line x1="223" y1="186" x2="297" y2="220" stroke="#f2a23a" stroke-opacity="0.6" stroke-width="17" stroke-linecap="round"/><line x1="223" y1="186" x2="297" y2="220" stroke="#0e1216" stroke-opacity="0.6" stroke-width="2" stroke-linecap="round"/><ellipse cx="196.3" cy="204.9" rx="16" ry="24" fill="#e24d48" fill-opacity="0.8" stroke="none" stroke-width="0"/><circle cx="160" cy="228" r="4" fill="#eef2f5" fill-opacity="0.95" stroke="#11161b" stroke-opacity="0.95" stroke-width="1"/><circle cx="144" cy="248" r="4" fill="#eef2f5" fill-opacity="0.95" stroke="#11161b" stroke-opacity="0.95" stroke-width="1"/><circle cx="226" cy="186" r="4" fill="#eef2f5" fill-opacity="0.95" stroke="#11161b" stroke-opacity="0.95" stroke-width="1"/><circle cx="300" cy="220" r="4" fill="#eef2f5" fill-opacity="0.95" stroke="#11161b" stroke-opacity="0.95" stroke-width="1"/></g></svg>