<svg xmlns="http://www.w3.org/2000/svg" viewBox="0 0 480 360">
<rect width="480" height="360" rx="24" fill="#101317"/>
<line x1="55" y1="310" x2="425" y2="310" stroke="#2c333a" stroke-width="3" opacity=".7"/>
<line x1="202" y1="206" x2="158" y2="220" stroke="#9ca7b1" stroke-width="16" stroke-linecap="round" opacity="0.45"/><line x1="158" y1="220" x2="116" y2="234" stroke="#9ca7b1" stroke-width="13" stroke-linecap="round" opacity="0.45"/><line x1="280" y1="232" x2="314" y2="260" stroke="#9ca7b1" stroke-width="21" stroke-linecap="round" opacity="0.35"/><line x1="314" y1="260" x2="336" y2="286" stroke="#9ca7b1" stroke-width="16" stroke-linecap="round" opacity="0.35"/><path d="M 180 214 Q 198 206 216 214 L 287 238 Q 274 246 261 238 Z" fill="#d6dce2" stroke="#0b0e11" stroke-width="2"/><line x1="198" y1="214" x2="154" y2="230" stroke="#d6dce2" stroke-width="20" stroke-linecap="round" opacity="1"/><line x1="154" y1="230" x2="112" y2="244" stroke="#d6dce2" stroke-width="16" stroke-linecap="round" opacity="1"/><line x1="274" y1="238" x2="306" y2="268" stroke="#d6dce2" stroke-width="24" stroke-linecap="round" opacity="1"/><line x1="306" y1="268" x2="328" y2="292" stroke="#d6dce2" stroke-width="18" stroke-linecap="round" opacity="1"/><circle cx="160" cy="222" r="22" fill="#d6dce2" stroke="#0b0e11" stroke-width="2"/><ellipse cx="157" cy="212" rx="16" ry="9" fill="#9ca7b1" opacity=".55"/><circle cx="198" cy="214" r="4" fill="#f1f4f6" stroke="#0b0e11" stroke-width="1"/><circle cx="154" cy="230" r="4" fill="#f1f4f6" stroke="#0b0e11" stroke-width="1"/><circle cx="274" cy="238" r="4" fill="#f1f4f6" stroke="#0b0e11" stroke-width="1"/><circle cx="306" cy="268" r="4" fill="#f1f4f6" stroke="#0b0e11" stroke-width="1"/><ellipse cx="220" cy="232" rx="40" ry="18" fill="#e04d49" opacity=".72"/><ellipse cx="190" cy="236" rx="26" ry="12" fill="#f1a13a" opacity=".72"/>
</svg>